<?xml version="1.0" standalone="no"?>
<!DOCTYPE svg PUBLIC "-//W3C//DTD SVG 20010904//EN"
 "http://www.w3.org/TR/2001/REC-SVG-20010904/DTD/svg10.dtd">
<svg version="1.0" xmlns="http://www.w3.org/2000/svg"
 width="620.000000pt" height="620.000000pt" viewBox="0 0 620.000000 620.000000"
 preserveAspectRatio="xMidYMid meet">
<metadata>
Created by potrace 1.11, written by Peter Selinger 2001-2013
</metadata>
<g transform="translate(0.000000,620.000000) scale(0.100000,-0.100000)"
fill="#000000" stroke="none">
<path d="M0 3100 l0 -3100 3100 0 3100 0 0 3100 0 3100 -3100 0 -3100 0 0
-3100z m2674 2091 c390 -101 632 -353 718 -746 8 -38 13 -129 12 -245 0 -168
-3 -194 -26 -282 -74 -274 -206 -472 -539 -813 -113 -115 -219 -230 -236 -255
-65 -96 -118 -259 -128 -397 -3 -43 -8 -97 -11 -120 l-5 -43 -255 0 -256 0 7
92 c18 263 61 439 143 574 75 125 132 194 352 422 242 251 287 304 341 397 68
116 101 230 107 366 6 144 -14 254 -65 359 -111 229 -361 330 -679 275 -267
-47 -464 -253 -464 -487 l0 -48 -260 0 -260 0 4 23 c3 12 7 56 11 98 32 413
365 755 823 844 121 23 126 23 342 20 192 -2 213 -5 324 -34z m1956 -153 c1
-253 -32 -2723 -36 -2735 -2 -10 -57 -13 -229 -13 -172 0 -227 3 -229 13 -2 6
-9 476 -15 1042 -6 567 -14 1211 -18 1433 l-6 402 266 0 267 0 0 -142z m-2250
-3360 c112 -51 170 -175 148 -315 -23 -149 -131 -233 -299 -233 -128 0 -226
58 -272 159 -30 66 -29 187 2 257 29 67 87 122 153 146 76 27 193 21 268 -14z
m2156 -4 c64 -33 116 -97 135 -167 19 -70 7 -187 -24 -240 -55 -93 -141 -137
-267 -137 -127 0 -219 50 -266 145 -79 162 -9 361 146 416 83 29 200 22 276
-17z"/>
</g>
</svg>
